<?xml version="1.0" standalone="no"?>
<!DOCTYPE svg PUBLIC "-//W3C//DTD SVG 20010904//EN"
 "http://www.w3.org/TR/2001/REC-SVG-20010904/DTD/svg10.dtd">
<svg version="1.0" xmlns="http://www.w3.org/2000/svg"
 width="3024.000000pt" height="3024.000000pt" viewBox="0 0 3024.000000 3024.000000"
 preserveAspectRatio="xMidYMid meet">
<metadata>
Created by potrace 1.11, written by Peter Selinger 2001-2013
</metadata>
<g transform="translate(0.000000,3024.000000) scale(0.100000,-0.100000)"
fill="#000000" stroke="none">
<path d="M4162 16667 l-1673 -1673 123 -119 c68 -66 821 -814 1675 -1662
l1551 -1543 784 0 783 0 -1663 1663 c-914 914 -1662 1667 -1662 1672 0 5 748
758 1662 1672 l1663 1663 -785 0 -785 0 -1673 -1673z"/>
<path d="M9405 18334 c-696 -55 -1274 -281 -1798 -703 -407 -328 -741 -738
-957 -1175 -137 -278 -220 -531 -274 -826 -37 -210 -46 -300 -53 -535 -26
-951 299 -1758 982 -2440 683 -684 1489 -1008 2440 -982 286 8 457 29 701 87
581 137 1083 426 1557 893 298 295 490 556 661 898 247 494 354 1032 325 1632
-43 888 -410 1651 -1097 2280 -547 501 -1122 768 -1842 857 -88 11 -556 21
-645 14z m503 -1125 c493 -53 936 -267 1302 -629 420 -415 633 -898 657 -1490
25 -639 -196 -1207 -648 -1659 -335 -335 -715 -533 -1174 -612 -153 -26 -463
-36 -630 -20 -512 50 -960 260 -1324 621 -191 189 -319 366 -432 595 -114 233
-182 476 -210 749 -15 148 -7 473 15 610 73 457 275 854 606 1187 369 372 793
584 1287 644 134 16 422 18 551 4z"/>
<path d="M13579 15683 c731 -1462 1343 -2682 1359 -2712 l30 -54 312 624 312
624 -1049 2087 -1048 2087 -623 1 -622 0 1329 -2657z"/>
<path d="M20825 16259 c-572 -1144 -1043 -2082 -1047 -2085 -3 -2 -336 653
-740 1456 -403 803 -735 1460 -738 1460 -3 0 -145 -279 -315 -621 l-310 -620
842 -1677 c463 -922 936 -1862 1050 -2089 l209 -412 1667 3335 1667 3334 -623
0 -622 0 -1040 -2081z"/>
<path d="M22757 15004 l-1667 -3334 618 0 619 0 321 633 c176 347 561 1114
855 1702 295 589 623 1243 730 1454 l195 384 485 -976 485 -977 626 0 626 0
-1111 2223 c-611 1222 -1112 2223 -1113 2224 -1 1 -752 -1499 -1669 -3333z"/>
<path d="M25970 12775 c0 -3 124 -253 275 -555 l275 -550 621 0 621 0 -280
553 -280 552 -616 3 c-339 1 -616 0 -616 -3z"/>
</g>
</svg>
